<?xml version="1.0" standalone="no"?>
<!DOCTYPE svg PUBLIC "-//W3C//DTD SVG 20010904//EN"
 "http://www.w3.org/TR/2001/REC-SVG-20010904/DTD/svg10.dtd">
<svg version="1.0" xmlns="http://www.w3.org/2000/svg"
 width="1024.000000pt" height="1024.000000pt" viewBox="0 0 1024.000000 1024.000000"
 preserveAspectRatio="xMidYMid meet">
<metadata>
Created by potrace 1.11, written by Peter Selinger 2001-2013
</metadata>
<g transform="translate(0.000000,1024.000000) scale(0.100000,-0.100000)"
fill="#000000" stroke="none">
<path d="M5238 9383 c-22 -5 -22 -5 85 -91 91 -74 279 -259 357 -352 30 -36
59 -70 65 -77 5 -6 20 -24 32 -40 230 -302 380 -579 491 -908 37 -110 93 -343
107 -440 3 -22 7 -53 10 -70 12 -80 19 -160 29 -317 2 -38 12 -72 29 -100 13
-24 34 -59 44 -78 11 -19 62 -107 113 -195 51 -88 106 -185 123 -215 17 -30
45 -79 64 -108 18 -29 33 -55 33 -58 0 -3 20 -38 43 -77 24 -40 57 -97 74
-127 17 -30 85 -149 153 -265 67 -115 134 -230 148 -255 82 -146 217 -377 226
-387 40 -42 319 180 537 427 90 102 269 344 269 363 0 3 17 34 39 68 43 72
139 266 172 349 23 58 88 245 95 270 2 8 17 67 34 130 30 114 53 228 64 325
32 256 30 274 -31 368 -190 294 -523 656 -830 904 -102 83 -318 243 -328 243
-3 0 -11 5 -18 11 -14 12 -147 99 -152 99 -2 0 -38 20 -80 45 -135 80 -492
252 -560 269 -5 2 -23 9 -40 15 -143 60 -569 180 -694 197 -25 3 -49 8 -53 10
-4 3 -24 7 -45 10 -21 2 -45 6 -53 9 -8 2 -40 7 -70 10 -30 3 -73 8 -95 11
-48 7 -90 11 -215 19 -52 3 -108 7 -125 9 -16 2 -38 1 -47 -1z"/>
<path d="M4787 9375 c-1 -2 -36 -5 -77 -8 -71 -6 -201 -22 -252 -32 -13 -3
-50 -10 -83 -15 -177 -31 -373 -79 -535 -131 -101 -32 -252 -85 -285 -99 -11
-5 -78 -34 -150 -65 -146 -63 -350 -167 -470 -240 -85 -51 -317 -204 -325
-214 -3 -3 -32 -26 -65 -50 -33 -25 -74 -56 -91 -70 -17 -14 -48 -39 -69 -56
-199 -159 -515 -493 -678 -716 -107 -147 -230 -330 -224 -335 6 -6 77 11 212
52 236 70 286 83 374 99 19 3 37 7 40 9 3 2 31 7 61 11 30 4 57 8 60 10 4 2
74 12 155 20 152 17 439 22 565 11 96 -8 129 -13 255 -32 226 -36 543 -143
775 -263 l125 -64 1045 -2 c575 -1 1051 0 1059 3 10 4 12 22 6 85 -3 43 -9 89
-11 101 -3 11 -9 44 -14 71 -5 28 -11 66 -15 85 -11 63 -45 193 -76 289 -187
582 -597 1125 -1124 1490 -82 57 -93 62 -137 60 -27 -2 -49 -3 -51 -4z"/>
<path d="M2607 7384 c-1 -1 -51 -5 -112 -8 -60 -4 -126 -9 -145 -11 -69 -9
-214 -32 -250 -40 -14 -4 -36 -8 -50 -11 -178 -36 -442 -127 -651 -226 l-87
-40 -40 -87 c-54 -115 -109 -243 -134 -311 -11 -30 -23 -64 -28 -75 -23 -54
-104 -318 -125 -405 -46 -194 -88 -426 -100 -560 -4 -36 -9 -76 -11 -90 -22
-133 -21 -636 2 -825 2 -22 9 -78 14 -125 6 -47 15 -107 20 -135 5 -27 12 -66
14 -85 6 -41 6 -40 40 -190 26 -114 36 -153 81 -300 40 -128 111 -320 165
-445 73 -168 160 -336 171 -330 11 7 24 55 59 215 48 214 117 434 183 580 41
92 127 267 157 320 90 159 257 391 360 500 204 217 326 324 530 465 113 78
179 128 180 137 0 3 32 62 71 130 39 67 80 139 91 158 11 19 62 107 113 195
51 88 102 177 114 198 39 69 58 102 108 187 28 47 61 104 74 126 13 23 71 123
129 223 58 99 110 189 115 199 6 9 40 69 76 132 127 220 137 248 97 274 -39
25 -283 121 -358 141 -195 52 -217 57 -355 80 -117 19 -152 23 -260 31 -86 6
-255 11 -258 8z"/>
<path d="M8857 7153 c-9 -32 -16 -69 -22 -109 -11 -69 -64 -295 -91 -383 -50
-167 -184 -495 -213 -524 -6 -6 -11 -16 -11 -22 0 -20 -154 -268 -230 -370
-104 -142 -150 -195 -280 -325 -166 -167 -283 -264 -476 -394 -94 -63 -105
-73 -150 -149 -76 -128 -260 -443 -268 -458 -4 -8 -12 -23 -19 -34 -7 -11 -43
-74 -81 -140 -38 -66 -89 -153 -113 -192 -24 -40 -43 -75 -43 -79 0 -3 -13
-26 -30 -51 -16 -24 -30 -46 -30 -49 0 -2 -18 -34 -40 -70 -22 -36 -40 -67
-40 -69 0 -2 -27 -49 -60 -105 -33 -56 -60 -104 -60 -106 0 -3 -8 -17 -19 -32
-10 -15 -60 -100 -111 -190 -73 -130 -90 -165 -80 -177 13 -15 194 -94 304
-131 66 -23 233 -69 287 -79 13 -3 47 -9 74 -15 60 -12 109 -20 150 -25 17 -2
46 -6 65 -9 109 -16 488 -24 546 -12 11 2 53 7 92 10 273 24 676 140 949 273
l78 39 45 90 c122 243 262 643 306 869 2 11 7 31 10 45 16 69 48 245 59 330 3
25 8 56 10 70 28 165 28 853 0 1000 -2 8 -6 42 -9 75 -4 33 -8 67 -10 75 -1 8
-6 38 -10 65 -4 28 -14 80 -22 117 -7 36 -17 83 -20 105 -3 21 -8 41 -11 46
-2 4 -6 19 -9 33 -3 14 -11 49 -18 77 -87 328 -183 583 -338 892 -58 117 -55
112 -61 88z"/>
<path d="M2699 4983 c-163 -119 -399 -343 -510 -483 -28 -36 -58 -74 -67 -85
-10 -11 -47 -65 -83 -120 -167 -253 -283 -501 -367 -790 -39 -132 -51 -180
-67 -270 -10 -49 -19 -97 -20 -106 -2 -9 -6 -40 -10 -70 -4 -30 -9 -65 -10
-79 -2 -14 -6 -64 -10 -113 l-6 -87 88 -123 c48 -67 89 -124 92 -127 4 -3 44
-52 90 -109 105 -130 158 -188 297 -326 119 -119 132 -130 274 -251 303 -258
676 -486 1067 -653 158 -67 470 -175 568 -197 6 -1 30 -7 55 -14 55 -15 43
-12 222 -49 82 -17 174 -33 205 -36 32 -3 65 -8 73 -10 15 -4 43 -8 170 -21
56 -5 158 -8 245 -5 22 1 7 17 -92 103 -193 168 -304 284 -466 490 -47 58
-147 207 -147 217 0 6 -4 11 -10 11 -5 0 -10 5 -10 11 0 6 -8 23 -19 37 -46
66 -165 304 -211 422 -18 47 -37 96 -43 110 -15 38 -23 61 -35 100 -18 57 -59
221 -71 280 -6 30 -14 66 -16 80 -3 14 -8 45 -11 70 -3 25 -7 52 -9 60 -5 18
-13 108 -20 239 l-5 94 -82 146 c-80 145 -236 417 -463 811 -65 113 -130 226
-144 251 -168 297 -367 638 -372 639 -4 0 -35 -21 -70 -47z"/>
<path d="M4025 2978 c3 -35 10 -88 15 -118 5 -30 11 -71 14 -90 52 -334 205
-712 424 -1050 187 -287 477 -581 790 -803 l90 -64 74 3 c83 3 191 11 228 18
14 3 48 7 75 11 67 8 271 44 315 55 19 5 47 11 61 14 109 19 398 110 595 187
131 51 447 202 539 256 119 71 211 128 215 133 3 4 16 13 30 20 34 18 268 189
360 263 87 71 488 469 546 542 21 28 42 52 45 55 13 11 190 250 233 315 25 38
51 85 56 105 5 19 17 45 25 58 19 27 22 27 -45 1 -216 -82 -482 -154 -685
-184 -22 -4 -52 -8 -66 -11 -25 -4 -106 -12 -184 -19 -50 -5 -377 -5 -425 -1
-178 16 -190 18 -380 53 -62 11 -195 47 -308 84 -162 52 -293 108 -494 210
-36 18 -80 19 -1093 19 l-1057 0 7 -62z"/>
</g>
</svg>
